<?xml version="1.0" encoding="utf-8"?>
<!-- Generator: Adobe Illustrator 26.0.1, SVG Export Plug-In . SVG Version: 6.00 Build 0)  -->
<svg version="1.1" id="Layer_1" xmlns="http://www.w3.org/2000/svg" xmlns:xlink="http://www.w3.org/1999/xlink" x="0px" y="0px"
	 viewBox="0 0 490 450" style="enable-background:new 0 0 490 450;" xml:space="preserve">
<style type="text/css">
	.st0{fill:#E81683;}
	.st1{fill:#822162;}
	.st2{fill:#9E216B;}
	.st3{fill:#C51D77;}
	.st4{fill:#FFFFFF;}
</style>
<path class="st0" d="M470,0H110v90c0,11-9,20-20,20H0v30c0,11,9,20,20,20h450c11,0,20-9,20-20V20C490,9,481,0,470,0z"/>
<path class="st1" d="M470,450H20c-11,0-20-9-20-20V310c0-11,9-20,20-20h450c11,0,20,9,20,20v120C490,441,481,450,470,450z"/>
<rect x="0" y="200" class="st2" width="490" height="140"/>
<rect x="0" y="110" class="st3" width="490" height="120"/>
<path class="st1" d="M0,108.3v1.7h90c11,0,20-9,20-20V0h-1.7L0,108.3z"/>
<polygon class="st4" points="366.4,268.3 433.7,163.3 367.4,163.3 329.5,231.2 290.6,163.3 260.5,163.3 215.7,163.3 53.8,163.3 
	53.8,217.8 121.3,217.8 121.3,380 187.6,380 187.6,217.8 246.2,217.8 278.8,267.8 204.8,380 279.6,380 322.3,310.4 364.9,380 
	440,380 "/>
</svg>
